<svg xmlns="http://www.w3.org/2000/svg" viewBox="0 0 400 400" width="400" height="400">
  <defs>
    <path id="topArc" d="M 200 200 m -160 0 a 160 160 0 0 1 320 0"></path>
    <path id="botArc" d="M 200 200 m 160 0 a 160 160 0 0 1 -320 0"></path>
  </defs>
  <circle cx="200" cy="200" r="196" fill="#FFB84A"></circle>
  <circle cx="200" cy="200" r="184" fill="none" stroke="#0B0D10" stroke-width="2"></circle>
  <circle cx="200" cy="200" r="176" fill="none" stroke="#0B0D10" stroke-width="1" stroke-dasharray="2 5"></circle>
  <g transform="translate(115 125) scale(0.85)">
    <path d="M 100 22 L 148 150 L 52 150 Z" fill="#0B0D10"></path>
    <line x1="100" y1="22" x2="100" y2="178" stroke="#0B0D10" stroke-width="10" stroke-linecap="square"></line>
    <path d="M 40 150 Q 100 192 160 150 L 148 150 Q 100 172 52 150 Z" fill="#0B0D10"></path>
  </g>
  <text font-family="&#39;JetBrains Mono&#39;,ui-monospace,monospace" font-size="15" font-weight="700" letter-spacing="6" fill="#0B0D10" text-anchor="middle">
    <textPath href="#topArc" startOffset="50%">KEEL · PROGRAMMING · LANGUAGE</textPath>
  </text>
  <text font-family="&#39;JetBrains Mono&#39;,ui-monospace,monospace" font-size="11" font-weight="500" letter-spacing="5" fill="#0B0D10" text-anchor="middle">
    <textPath href="#botArc" startOffset="50%">AGENTS ARE FIRST-CLASS CITIZENS</textPath>
  </text>
  <g fill="#0B0D10">
    <circle cx="58" cy="200" r="3"></circle>
    <circle cx="342" cy="200" r="3"></circle>
  </g>
</svg>